# xmcd CD database file
#
# Track frame offsets:
#	150
#	15346
#	31246
#	46593
#	61137
#	79838
#	95651
#	109587
#	126736
#	147633
#	164583
#	179223
#	196756
#	211345
#
# Disc length: 3071 seconds
#
# Revision: 0
# Processed by: cddbd v1.5.2PL0 Copyright (c) Steve Scherf et al.
# Submitted via: CdAid (MTCDDB.DLL V2003.12.21)
#
DISCID=c50bfd0e
DTITLE=Norah Jones - Feels Like Home
DYEAR=2003
DGENRE=Jazz
TTITLE0=Sunrise
TTITLE1=What Am I to You?
TTITLE2=Those Sweet Words
TTITLE3=Carnival Town
TTITLE4=In the Morning
TTITLE5=Be Here to Love Me
TTITLE6=Creepin'In
TTITLE7=Toes
TTITLE8=Humble Me
TTITLE9=Above Ground
TTITLE10=The Long Way Home
TTITLE11=The Prettiest Thing
TTITLE12=Don't Miss You At All
TTITLE13=Sleepless Nights
EXTD=YEAR: 2003 ID3G:   8
EXTT0=
EXTT1=
EXTT2=
EXTT3=
EXTT4=
EXTT5=
EXTT6=
EXTT7=
EXTT8=
EXTT9=
EXTT10=
EXTT11=
EXTT12=
EXTT13=
PLAYORDER=
